# xmcd CD database file
#
# Track frame offsets:
#	150
#	20773
#	37920
#	57916
#	78030
#	101773
#	115952
#	129581
#	149486
#	163958
#	187764
#	209055
#	227790
#	251972
#
# Disc length: 3558 seconds
#
# Revision: 1
# Processed by: cddbd v1.5.2PL0 Copyright (c) Steve Scherf et al.
# Submitted via: CDex 1.51
#
DISCID=ca0de40e
DTITLE=Selena Jones - Gold: The Ultimate Collection [CD1]
DYEAR=2006
DGENRE=Jazz
TTITLE0=Just The Way You Are
TTITLE1=We've Only Just Began
TTITLE2=We're All Alone
TTITLE3=Without You
TTITLE4=Georgia On My Mind
TTITLE5=You Light Up My Life
TTITLE6=The Way We Were
TTITLE7=How Do You Keep The Music Playing
TTITLE8=He's (She's) Out Of My Life
TTITLE9=My Love
TTITLE10=I Won't Last a Day Without You
TTITLE11=And I Love You so
TTITLE12=Lately
TTITLE13=Girl (Boy) From Ipanema
EXTD=YEAR: 2006
EXTT0=
EXTT1=
EXTT2=
EXTT3=
EXTT4=
EXTT5=
EXTT6=
EXTT7=
EXTT8=
EXTT9=
EXTT10=
EXTT11=
EXTT12=
EXTT13=
PLAYORDER=
